<svg xmlns="http://www.w3.org/2000/svg" xml:space="preserve" width="308.7612359841165" height="304.915625" data-id="lg_qdZvA0Y03NWfjDJ8N4" data-version="1" viewBox="0 0 2000 1500"><path fill="#21364f" stroke="transparent" d="M0 0h2000v1500H0z"/><g data-padding="20"><g transform="translate(-992.397 -693.215)scale(1.77576)"><rect width="149.814" height="370.64" x="983.435" y="358.822" fill="none" rx="0" ry="0" transform="matrix(.98 0 0 .98 85.68 377.26)"/><path fill="#f0f6f3" d="M1120.505 1015.089q-17.42 0-31.77-8.87-14.35-8.88-22.9-23.55-8.55-14.68-8.55-32.42v-14.84q0-1.61 1.61-1.61h36.13q1.29 0 1.29 1.61v14.84q0 10.65 7.1 18.23 7.09 7.58 17.09 7.58t17.1-7.75q7.09-7.74 7.09-18.06 0-11.93-15.48-20.64-5.16-2.91-16.13-9.03-10.96-6.13-20.64-11.62-17.74-10.32-26.29-25.96-8.55-15.65-8.55-35.32 0-18.06 8.71-32.42 8.71-14.35 23.06-22.74 14.36-8.39 31.13-8.39 17.1 0 31.45 8.55t22.9 22.9q8.55 14.36 8.55 32.1v26.45q0 1.29-1.29 1.29h-36.13q-1.29 0-1.29-1.29l-.32-26.45q0-11.29-7.1-18.39-7.09-7.09-16.77-7.09-10 0-17.09 7.58-7.1 7.58-7.1 17.9 0 10.64 4.51 17.74 4.52 7.1 16.46 13.55 1.61.96 6.29 3.38 4.67 2.42 10.16 5.49 5.48 3.06 9.83 5.32 4.36 2.26 5.33 2.9 16.12 9.03 25.48 22.1 9.35 13.06 9.35 32.09 0 18.39-8.55 33.06-8.54 14.68-22.9 23.23-14.35 8.55-31.77 8.55"/><path fill="#ed7b0e" d="M1176.24 618.084c0 29.832-24.408 54.24-54.24 54.24s-54.24-24.408-54.24-54.24 24.408-54.24 54.24-54.24 54.24 24.408 54.24 54.24m-54.24-61.02c2.034 0 3.39-1.356 3.39-3.39v-16.95c0-2.034-1.356-3.39-3.39-3.39s-3.39 1.356-3.39 3.39v16.95c0 2.034 1.356 3.39 3.39 3.39m-64.41 64.41h-16.95c-2.034 0-3.39-1.356-3.39-3.39s1.356-3.39 3.39-3.39h16.95c2.034 0 3.39 1.356 3.39 3.39s-1.356 3.39-3.39 3.39m64.41 81.36c-2.034 0-3.39-1.356-3.39-3.39v-16.95c0-2.034 1.356-3.39 3.39-3.39s3.39 1.356 3.39 3.39v16.95c0 1.695-1.356 3.39-3.39 3.39m81.36-81.36h-16.95c-2.034 0-3.39-1.356-3.39-3.39s1.356-3.39 3.39-3.39h16.95c2.034 0 3.39 1.356 3.39 3.39s-1.356 3.39-3.39 3.39m-34.239-44.07a3.4 3.4 0 0 1-2.373-1.017c-1.356-1.356-1.356-3.39 0-4.746l12.204-11.526c1.356-1.356 3.39-1.356 4.746 0s1.356 3.39 0 4.746l-12.204 11.526c-1.017.678-1.695 1.017-2.373 1.017m-92.547-1.695a3.4 3.4 0 0 1-2.373-1.017l-11.865-11.865c-1.356-1.356-1.356-3.39 0-4.746s3.39-1.356 4.746 0l11.865 11.865c1.356 1.356 1.356 3.39 0 4.746-.678.678-1.695 1.017-2.373 1.017m-11.865 103.395a3.4 3.4 0 0 1-2.373-1.017c-1.356-1.356-1.356-3.39 0-4.746l11.865-11.865c1.356-1.356 3.39-1.356 4.746 0s1.356 3.39 0 4.746l-11.865 11.865c-.678.678-1.695 1.017-2.373 1.017m114.582 0a3.4 3.4 0 0 1-2.373-1.017l-11.865-11.865c-1.356-1.356-1.356-3.39 0-4.746s3.39-1.356 4.746 0l11.865 11.865c1.356 1.356 1.356 3.39 0 4.746-.339.678-1.356 1.017-2.373 1.017"/></g><path fill="transparent" stroke="transparent" stroke-width="2.013" d="M828.936 187.5h342.128v1125H828.936z"/></g></svg>